<?xml version="1.0" encoding="UTF-8" standalone="no"?>
<svg
   xmlns:dc="http://purl.org/dc/elements/1.1/"
   xmlns:cc="http://creativecommons.org/ns#"
   xmlns:rdf="http://www.w3.org/1999/02/22-rdf-syntax-ns#"
   xmlns:svg="http://www.w3.org/2000/svg"
   xmlns="http://www.w3.org/2000/svg"
   xmlns:xlink="http://www.w3.org/1999/xlink"
   xmlns:sodipodi="http://sodipodi.sourceforge.net/DTD/sodipodi-0.dtd"
   xmlns:inkscape="http://www.inkscape.org/namespaces/inkscape"
   id="Layer_1"
   data-name="Layer 1"
   viewBox="0 0 402.45999 204.37104"
   version="1.1"
   sodipodi:docname="logo-login.svg"
   width="402.45999"
   height="204.37103"
   inkscape:version="0.92.4 (unknown)">
  <metadata
     id="metadata57">
    <rdf:RDF>
      <cc:Work
         rdf:about="">
        <dc:format>image/svg+xml</dc:format>
        <dc:type
           rdf:resource="http://purl.org/dc/dcmitype/StillImage" />
        <dc:title>Artboard 7</dc:title>
      </cc:Work>
    </rdf:RDF>
  </metadata>
  <sodipodi:namedview
     pagecolor="#ffffff"
     bordercolor="#666666"
     borderopacity="1"
     objecttolerance="10"
     gridtolerance="10"
     guidetolerance="10"
     inkscape:pageopacity="0"
     inkscape:pageshadow="2"
     inkscape:window-width="1301"
     inkscape:window-height="744"
     id="namedview55"
     showgrid="false"
     inkscape:zoom="0.24094457"
     inkscape:cx="-510.97977"
     inkscape:cy="589.52851"
     inkscape:window-x="65"
     inkscape:window-y="24"
     inkscape:window-maximized="1"
     inkscape:current-layer="Layer_1" />
  <defs
     id="defs20">
    <style
       id="style2">.cls-1{fill:none;}.cls-2{opacity:0.6;}.cls-3{clip-path:url(#clip-path);}.cls-10,.cls-4{fill:#1d023f;}.cls-5{opacity:0.27;}.cls-6{fill:url(#linear-gradient);}.cls-7{fill:url(#linear-gradient-2);}.cls-8{fill:#fff;}.cls-9{fill:url(#linear-gradient-3);}.cls-10{font-size:68px;font-family:Oxanium-Medium, Oxanium;font-weight:500;letter-spacing:0.1em;}</style>
    <clipPath
       id="clip-path">
      <rect
         class="cls-1"
         x="-1588.15"
         y="4.3499999"
         width="1258.16"
         height="2232.9099"
         id="rect4"
         style="fill:none" />
    </clipPath>
    <linearGradient
       id="linear-gradient"
       x1="446.67001"
       y1="1458.95"
       x2="811.33002"
       y2="1458.95"
       gradientUnits="userSpaceOnUse"
       gradientTransform="translate(-1635.153,-779.25793)">
      <stop
         offset="0.16"
         stop-color="#00ffea"
         id="stop7" />
      <stop
         offset="0.63"
         stop-color="#00f962"
         id="stop9" />
      <stop
         offset="0.85"
         stop-color="#00f729"
         id="stop11" />
    </linearGradient>
    <linearGradient
       id="linear-gradient-2"
       x1="229.49001"
       y1="1031.12"
       x2="449.79001"
       y2="1031.12"
       gradientUnits="userSpaceOnUse">
      <stop
         offset="0"
         stop-color="#ee0057"
         id="stop14" />
      <stop
         offset="1"
         stop-color="#6600e9"
         id="stop16" />
    </linearGradient>
    <linearGradient
       id="linear-gradient-3"
       x1="229.25"
       y1="1173.5601"
       x2="450.03"
       y2="1173.5601"
       xlink:href="#linear-gradient-2"
       gradientTransform="translate(-224.04,-779.25793)" />
    <linearGradient
       inkscape:collect="always"
       xlink:href="#linear-gradient-2"
       id="linearGradient59"
       gradientUnits="userSpaceOnUse"
       x1="229.49001"
       y1="1031.12"
       x2="449.79001"
       y2="1031.12"
       gradientTransform="translate(-224.04,-779.25793)" />
  </defs>
  <title
     id="title22">Artboard 7</title>
  <g
     id="g42"
     transform="scale(0.5)">
    <path
       inkscape:connector-curvature="0"
       style="fill:url(#linearGradient59)"
       id="path36"
       d="m 5.45,349.67207 v -195.63 h 28.92 v 195.63 z m 64.36,0 v -195.63 h 31.76 l 95.26,149.7 v -149.7 h 28.92 v 195.63 h -31.79 l -95.26,-149.7 v 149.7 z"
       class="cls-7" />
    <path
       style="fill:#ffffff"
       inkscape:connector-curvature="0"
       id="path38"
       d="m 259.48,340.03207 v -14.46 h 65.21 q 16.72,0 16.73,-17 0,-17.29 -14.46,-19.84 l -32.9,-5.39 q -34.58,-5.67 -34.58,-38.56 0,-43.1 43.66,-43.09 h 45.93 l 13,9.63 v 14.42 h -58.4 q -16.71,0 -16.71,17 0,15.32 14.46,17.58 l 33.17,5.67 q 34.37,5.75 34.37,40.59 0,43.1 -43.37,43.09 h -53 z"
       class="cls-8" />
    <path
       style="fill:#ffffff"
       inkscape:connector-curvature="0"
       id="path40"
       d="m 393.3,406.37207 v -204.69 h 80.23 q 43.66,0 43.66,43.37 v 61 q 0,43.67 -43.66,43.66 H 420.8 v 56.7 z m 27.5,-80.8 h 52.16 q 16.44,0 16.44,-16.73 v -66.62 q 0,-16.44 -16.44,-16.45 H 420.8 Z"
       class="cls-8" />
    <path
       style="fill:#ffffff"
       inkscape:connector-curvature="0"
       id="path42"
       d="m 544.13,175.59207 v -29.77 h 28.64 v 29.77 z m 0.56,174.08 v -148 h 27.51 v 148 z"
       class="cls-8" />
    <path
       style="fill:#ffffff"
       inkscape:connector-curvature="0"
       id="path44"
       d="m 601.11,349.67207 v -130.42 q 9.93,-17.58 37.71,-17.57 h 29.2 l 13,9.63 v 14.43 h -39.36 c -6.06,0 -10.4,1.52 -13.05,4.54 v 119.36 z"
       class="cls-8" />
    <path
       style="fill:#ffffff"
       inkscape:connector-curvature="0"
       id="path46"
       d="m 729.26,349.67207 q -43.66,0 -43.66,-43.66 0,-43.66 43.66,-43.66 h 47.92 v -20.13 q 0,-16.44 -16.45,-16.45 h -60.67 v -14.46 l 13,-9.63 h 48.2 q 43.65,0 43.66,43.37 v 104.62 z m -16.16,-40.83 q 0,16.74 16.73,16.73 h 47.35 v -40 h -47.35 q -16.73,0 -16.73,16.44 z"
       class="cls-8" />
    <path
       inkscape:connector-curvature="0"
       style="fill:url(#linear-gradient-3)"
       id="path48"
       d="M 225.96,408.74207 H 5.21 v -28.9 h 220.75 z"
       class="cls-9" />
    <path
       style="fill:#ffffff"
       inkscape:connector-curvature="0"
       id="path50"
       d="m 152.96,70.822067 -7.19,6.92 c -1.87,1.75 -3.72,3.52 -5.58,5.27 l -14.81,13.58 -7.3,7.000003 -11.57,11.15 v 0 0 c -0.78,1.11 -1.34,2.22 -2.12,3.19 a 5.62,5.62 0 0 1 -4.14,2.24 4,4 0 0 1 -2.24,-0.71 l -1,-0.72 a 2.86,2.86 0 0 1 -0.14,-1 12.4,12.4 0 0 1 0.1,-1.42 10.22,10.22 0 0 1 2.65,-5.81 l 5.85,-5.74 4.28,-4.27 10.13,-9.650003 29.4,-28.35 14.11,-13.52 q 9.81,-9.37 19.63,-18.8 l 5.82,-5.8 a 122.81,122.81 0 0 0 9.39,-9.82 l 2.43,-3 c 0.31,-0.45 0.85,-1.36 1.41,-2.2100003 a 6.87,6.87 0 0 1 1.38,-1.73 c 0.13,-0.1 0.32,0 0.61,-0.14 a 4.71,4.71 0 0 0 0.75,0.55 h 0.11 0.12 l 0.62,-0.14 c 0.09,0.06 0.18,0.14 0.27,0.21 h -0.05 l -0.29,0.15 0.15,0.29 0.06,0.13 0.06,0.11 0.11,0.05 0.3,0.12 0.34,0.13 0.09,-0.35 a 1,1 0 0 1 0.39,-0.3 1.81,1.81 0 0 1 0.76,-0.19 c 0.29,0 0.33,0.06 0.34,0.15 l 0.05,0.28 h 0.08 l -0.3,0.37 0.45,0.15 c 0.13,0 0.25,0.07 0.37,0.12 h 0.06 0.06 a 1.68,1.68 0 0 0 1.29,-0.56 0.25,0.25 0 0 1 0.08,0.1 l 0.18,0.19 0.23,-0.12 a 1,1 0 0 1 0.47,-0.13 1.61,1.61 0 0 1 0.39,0.06 v 0.25 c 0,2.2000003 -2.55,5.2300003 -3.76,6.8600003 -2.29,3.11 -5,5.75 -7.47,8.77 l -3.41,3.41 a 34.88,34.88 0 0 1 -4.93,5 c -1,1 -2,2 -3,3.05 l -9.25,8.88 -10.19,9.44 -3.27,3.2 -3.08,3.15 z m 103.1,18 c 6.35,1.88 12.59,3.52 17.57,6.65 h -0.43 -0.47 l 0.19,0.42 0.09,0.19 h -0.44 l -0.79,-0.06 0.51,0.6 0.16,0.16 h -0.49 -0.25 l -0.06,0.25 a 1.41,1.41 0 0 1 0,0.24 c -2,-0.12 -4,-1.11 -5.93,-1.63 -4.35,-1.13 -8.8,-2 -13.36,-2.94 -5.63,-1.11 -11.5,-1.21 -17.35,-2.2 l -8.39,-0.74 -7.35,-0.62 -13.91,-0.91 a 10.13,10.13 0 0 0 -1.26,-0.06 19.11,19.11 0 0 0 -2,0.1 3,3 0 0 0 -1.44,0.39 v 0 0 c -0.68,0.94 -1.36,1.88 -2,2.83 a 43,43 0 0 1 -6.61,7 c -2.71,2.180003 -5.29,4.470003 -8.13,6.490003 -8.51,6 -18.4,10.33 -29.9,13.45 a 48.47,48.47 0 0 1 -11.89,1.59 c -5.55,0 -10.65,-1.26 -12.13,-4.79 a 6.49,6.49 0 0 1 -0.51,-2.58 c 0,-4.44 4.14,-9.22 5.95,-11.44 2.58,-3.200003 6.44,-5.590003 10.13,-7.780003 a 92.29,92.29 0 0 1 28.38,-10.7 l 15.01,-2.28 c 0.52,-0.11 1.75,-0.2 2.92,-0.35 a 6.34,6.34 0 0 0 2.75,-0.69 h 0.05 v -0.07 a 3.14,3.14 0 0 0 0.24,-1.17 c -0.06,-2.67 -3.36,-4.42 -4.9,-5 a 20.92,20.92 0 0 0 -6.46,-0.87 53.26,53.26 0 0 0 -12.27,1.65 l -5.07,1.79 a 17.44,17.44 0 0 1 -4.06,0.64 4.09,4.09 0 0 1 -2.41,-0.6 2.56,2.56 0 0 1 -1.12,-2.18 4.81,4.81 0 0 1 2.27,-3.82 c 3.68,-2.07 8.45,-2.72 13.47,-3.69 l 5.85,-0.5 h 0.83 c 12.33,0 21.17,3.4 22.65,13.91 v 0.25 h 0.25 l 13.56,1.64 13.78,2 c 8.61,1.77 17.05,3.1 24.8,5.43 z m -67.47,1.85 a 1,1 0 0 0 0,-0.3 c -0.32,-0.71 -1.08,-0.69 -1.75,-0.71 -0.38,0 -0.77,0 -1.06,0 l -4.37,0.34 c -3.11,0.55 -6.1,0.83 -9,1.53 -9.35,2.25 -18.26,5.38 -25.63,9.760003 -3.13,1.88 -9.38,5.2 -9.42,10.26 v 0.27 l 0.22,0.08 a 18.12,18.12 0 0 0 5.3,0.69 34.9,34.9 0 0 0 9.12,-1.32 103.48,103.48 0 0 0 25.74,-11.510003 46.12,46.12 0 0 0 8.76,-6.15 l -0.23,-0.23 0.23,0.23 c 0.32,-0.37 2.06,-1.71 2.12,-2.94 z m 31.52,18.150003 c -1.44,0.25 -2.89,0.48 -4.33,0.72 a 6.63,6.63 0 0 0 -2.25,0.89 l -0.48,0.54 -4,0.76 -1.48,1.19 -0.18,0.24 c 1,1.05 4.21,0.74 6.23,0.71 a 31.28,31.28 0 0 0 11.5,-2.2 c 0.89,-0.38 2.54,-1 2.72,-2.07 -0.88,-1.08 -4.16,-0.94 -6.1,-0.89 z M 61.41,79.682067 a 4.06,4.06 0 0 0 -2.24,-0.52 13.15,13.15 0 0 0 -4.77,1 c -3.57,1.5 -11.29,7.67 -19.3,14 -8.01,6.330003 -16.38,12.780003 -21.6,15.050003 a 4.53,4.53 0 0 1 -1.69,0.46 0.89,0.89 0 0 1 -0.71,-0.27 0.94,0.94 0 0 1 -0.21,-0.74 7.47,7.47 0 0 1 1.41,-2.82 c 0.81,-1.2 1.94,-2.67 3.28,-4.34 2.68,-3.340003 6.22,-7.460003 9.77,-11.730003 7.09,-8.51 14.23,-17.75 14.54,-21.82 a 1.87,1.87 0 0 0 -0.48,-1.66 3.48,3.48 0 0 0 -2.45,-0.77 c -4.38,0 -12.55,4.29 -19.94,9 a 190.76,190.76 0 0 0 -15.89,11.28 3.65,3.65 0 0 0 -1.13,1.29 v 0 0 0.1 0 c 0,0.18 0.09,0.34 0.36,0.51 a 1.93,1.93 0 0 0 0.86,0.24 h 0.11 0.1 0.08 0.3 0.15 c 0.17,0 0.45,0 0.78,-0.06 a 1,1 0 0 1 1,0.66 c 0,0.13 0.24,0.26 0.74,0.26 a 7.34,7.34 0 0 0 1.85,-0.33 19.89,19.89 0 0 0 3.19,-0.67 5.31,5.31 0 0 1 2,-0.41 v 0 a 32.11,32.11 0 0 0 3.93,-2.36 c 1.51,-1 2.81,-1.91 2.81,-1.91 l 0.29,0.3 v -0.17 0 a 4.81,4.81 0 0 0 0.48,-0.14 2.79,2.79 0 0 1 0.77,-0.18 0.51,0.51 0 0 1 0.3,0.08 0.47,0.47 0 0 1 0.21,0.45 0.71,0.71 0 0 1 -0.16,0.38 v 0 0 a 100.68,100.68 0 0 0 -11.55,14.9 56.77,56.77 0 0 0 -5.1,9.260003 v 0.08 a 25,25 0 0 0 -2.35,7.59 4.29,4.29 0 0 0 0.76,3.4 3.7,3.7 0 0 0 2.86,1 c 3.81,0 10.3,-2.89 16.88,-6.7 a 185,185 0 0 0 17.87,-11.88 l 0.1,-0.07 h 0.13 a 9,9 0 0 1 1.28,-0.13 1.53,1.53 0 0 1 1,0.28 1.17,1.17 0 0 1 0.37,0.64 1.49,1.49 0 0 1 0.37,0.89 7,7 0 0 1 0,1.44 c -0.18,2 -0.84,4.71 -1,5.92 a 2.06,2.06 0 0 0 0,0.42 l 0.08,0.13 v 0.19 a 11.73,11.73 0 0 0 -0.23,1.46 3.58,3.58 0 0 0 0.35,2.32 1.37,1.37 0 0 0 1.27,0.58 c 2.23,0 6.57,-3 8.67,-5 a 9.94,9.94 0 0 0 1.06,-1.09 v 0 c 0,0 0,0 -0.13,-0.08 a 2.48,2.48 0 0 0 -0.51,-0.08 2.47,2.47 0 0 1 -1.16,-0.22 2.68,2.68 0 0 1 -2.14,-3.2 c 0.48,-4.88 7.44,-13.810003 10.88,-20.000003 v 0 0 a 10.22,10.22 0 0 0 2.19,-4.53 1.68,1.68 0 0 0 -0.69,-1.68 z M 41.8,110.89207 Z M 160.96,26.192067 a 23.68,23.68 0 0 1 -1,6.6 39.82,39.82 0 0 1 -1.84,5.56 8.5,8.5 0 0 1 -1,1.87 c -0.81,1 -0.52,0.94 -1.33,1.94 -1.63,2.4 -3.55,6.25 -5.49,8.33 l -1.84,1.83 c -3.63,4.73 -8.28,8.63 -12.45,12.88 -3.86,3.93 -7.77,7.75 -11.85,11.46 -1.69,1.55 -3.15,3.27 -4.9,4.7 -1.31,1.07 -2.33,2.49 -3.51,3.54 -1.72,1.54 -3.35,3.1 -5.09,4.57 -1.74,1.47 -3.06,3 -4.52,4.47 -3.55,3.51 -7.33,6.820003 -11.14,10.070003 -3,2.57 -5.8,5.48 -9,7.72 -3,2.06 -6,3.69 -9.23,5.61 a 18.55,18.55 0 0 1 -9.1,2.79 11.93,11.93 0 0 1 -3.05,-0.39 c -3.56,-0.93 -5.9,-4.93 -6.75,-8.84 -0.28,-1.25 -0.12,-2.57 -0.35,-4.12 a 8,8 0 0 1 -0.09,-1.33 10.64,10.64 0 0 1 0.32,-2.68 37.56,37.56 0 0 1 5.11,-11.500003 c 6.5,-9.91 18.71,-19.83 30.78,-24 2.7,-0.93 6,-1.1 8.82,-1.69 l 2,0.12 h 0.07 l 1.38,-0.18 a 28.86,28.86 0 0 1 9,2.28 27.41,27.41 0 0 1 2.29,1.57 l 1.25,0.93 c 0.18,0.12 0.31,0.22 0.41,0.3 l 0.12,0.08 v 0 h 0.05 0.06 0.08 0.09 0.08 c 1.24,-0.69 2.23,-2.29 3.09,-3.17 2.5,-2.58 5.16,-5 7.55,-7.71 3.53,-4 7.55,-7.71 11.08,-11.85 4.85,-5.65 3.71,-5 7.67,-11.66 a 21,21 0 0 0 2.65,-10.1 11.94,11.94 0 0 0 -1.59,-6.38 17.42,17.42 0 0 0 -6.82,-5.79 35.25,35.25 0 0 0 -14.09,-3 20.44,20.44 0 0 0 -3.58,0.29 h -2.63 c -0.59,0.21 -2.18,0.39 -2.89,0.54 h -1.33 v 0 a 38.06,38.06 0 0 1 -3.79,0.89 h -1 -0.06 c -3,1.06 -6.3,1.56 -9.24,2.63 -1.19,0.43 -2.39,0.37 -3.7,0.92 -3.4,1.45 -7.06,2.31 -10.55,3.78 -4.54,1.92 -9.18,4 -13.57,5.86 l -2.11,0.93 c -1.4,0.62 -2.79,1.26 -4.15,1.91 -0.15,-0.21 -0.32,-0.46 -0.42,-0.57 a 4.91,4.91 0 0 0 -3.36,0.87 c -1.59,-0.54 -3.44,0.32 -5.07,-0.31 l -0.22,-0.24 a 1.3,1.3 0 0 1 0.41,-0.87 0.56,0.56 0 0 1 -0.05,-0.08 l -1.33,0.1 v -0.54 c -1.2,-0.19 -1.76,0.46 -2.78,0.52 0.12,-0.28 0.3,-0.46 0.12,-0.73 l -1,-0.17 c -0.06,-0.16 -0.14,-0.31 -0.21,-0.47 0.84,-0.48 1.72,-0.92 2.6,-1.45 3.12,-1.87 6.5,-3.69 9.72,-5.62 2.19,-1.3 4.58,-2.12 7,-3.33 A 170.21,170.21 0 0 1 94.1,7.9720667 q 3.15,-1.17 6.33,-2.28 c 2.76,-1 5.75,-1.61 8.54,-2.56 0.9,-0.31 2,-0.5 2.83,-0.71 h 1 v 0 c 2.25,-0.73 5.14,-1.15 7.62,-1.70000005 1.69,-0.4 4.49,0.15 6.17,-0.6 1.46,0 3.25,-0.11 5,-0.11 a 17.67,17.67 0 0 1 4.71,0.46 h 0.08 q 1.17,0 2.34,0.12 C 149.52,3.2820667 160.96,13.272067 160.96,26.192067 Z m -48,50.14 h -0.63 c -1.34,-1.06 -3.76,-1.2 -5.81,-1.22 h -0.07 l -3.64,0.37 a 65.82,65.82 0 0 0 -8.51,2.41 64.65,64.65 0 0 0 -26.1,19.56 26.31,26.31 0 0 0 -5,9.100003 9.75,9.75 0 0 0 -0.38,2.65 5,5 0 0 0 0.79,3 2.48,2.48 0 0 0 2.11,0.94 v 0 a 8,8 0 0 0 2.82,-0.65 c 3.21,-1.27 6.06,-3.48 8.72,-5.34 3,-2.13 5.67,-4.74 8.49,-7 3.64,-2.880003 7.11,-5.910003 10.62,-8.920003 l 5.12,-4.71 c 2.41,-2 4.63,-4.17 7,-6.09 1.24,-1 3.11,-2.1 4.1,-3.55 z"
       class="cls-8" />
  </g>
</svg>
