<?xml version="1.0" encoding="UTF-8" standalone="no"?>
<svg
   xmlns:dc="http://purl.org/dc/elements/1.1/"
   xmlns:cc="http://creativecommons.org/ns#"
   xmlns:rdf="http://www.w3.org/1999/02/22-rdf-syntax-ns#"
   xmlns:svg="http://www.w3.org/2000/svg"
   xmlns="http://www.w3.org/2000/svg"
   xmlns:xlink="http://www.w3.org/1999/xlink"
   xmlns:sodipodi="http://sodipodi.sourceforge.net/DTD/sodipodi-0.dtd"
   xmlns:inkscape="http://www.inkscape.org/namespaces/inkscape"
   id="Layer_1"
   data-name="Layer 1"
   viewBox="0 0 419.33334 440.92003"
   version="1.1"
   sodipodi:docname="left_grid.svg"
   inkscape:version="0.92.4 (unknown)"
   width="419.33334"
   height="440.92001"
   inkscape:export-filename="/home/luis/Documents/UdlaIN-app_Folder/SVG/Home_Screen/menu/final/leftgrid.svg.png"
   inkscape:export-xdpi="129.92482"
   inkscape:export-ydpi="129.92482">
  <metadata
     id="metadata384">
    <rdf:RDF>
      <cc:Work
         rdf:about="">
        <dc:format>image/svg+xml</dc:format>
        <dc:type
           rdf:resource="http://purl.org/dc/dcmitype/StillImage" />
        <dc:title>Artboard 11</dc:title>
      </cc:Work>
    </rdf:RDF>
  </metadata>
  <sodipodi:namedview
     pagecolor="#ffffff"
     bordercolor="#666666"
     borderopacity="1"
     objecttolerance="10"
     gridtolerance="10"
     guidetolerance="10"
     inkscape:pageopacity="0"
     inkscape:pageshadow="2"
     inkscape:window-width="1301"
     inkscape:window-height="744"
     id="namedview382"
     showgrid="false"
     inkscape:zoom="1.3696873"
     inkscape:cx="214.82327"
     inkscape:cy="236.46017"
     inkscape:window-x="65"
     inkscape:window-y="24"
     inkscape:window-maximized="1"
     inkscape:current-layer="Layer_1" />
  <defs
     id="defs51">
    <style
       id="style2">.cls-1,.cls-24,.cls-25,.cls-26,.cls-27,.cls-28,.cls-29,.cls-30,.cls-31,.cls-32,.cls-33,.cls-34,.cls-35{fill:none;}.cls-2{fill:#1d023f;}.cls-3{opacity:0.14;}.cls-4{clip-path:url(#clip-path);}.cls-5{fill:url(#linear-gradient);}.cls-6{fill:url(#linear-gradient-2);}.cls-23,.cls-36,.cls-7{fill:#fff;}.cls-8{font-size:38.78px;fill:#12ff5a;letter-spacing:-0.01em;}.cls-23,.cls-36,.cls-8{font-family:Oxanium-Regular, Oxanium;}.cls-9{fill:url(#linear-gradient-3);}.cls-10{fill:url(#linear-gradient-4);}.cls-11{fill:url(#linear-gradient-5);}.cls-12{fill:url(#linear-gradient-6);}.cls-13{fill:url(#linear-gradient-7);}.cls-14{fill:url(#linear-gradient-8);}.cls-15{fill:url(#linear-gradient-9);}.cls-16{fill:url(#linear-gradient-10);}.cls-17{fill:url(#linear-gradient-11);}.cls-18{fill:url(#linear-gradient-12);}.cls-19{fill:url(#linear-gradient-13);}.cls-20{fill:url(#linear-gradient-14);}.cls-21{fill:url(#linear-gradient-15);}.cls-22{fill:url(#linear-gradient-16);}.cls-23,.cls-36{font-size:64px;}.cls-23,.cls-37{letter-spacing:-0.03em;}.cls-24,.cls-25,.cls-26,.cls-27,.cls-28,.cls-29,.cls-30,.cls-31,.cls-32,.cls-33,.cls-34,.cls-35{stroke-miterlimit:10;stroke-width:2px;}.cls-24{stroke:url(#linear-gradient-17);}.cls-25{stroke:url(#linear-gradient-18);}.cls-26{stroke:url(#linear-gradient-19);}.cls-27{stroke:url(#linear-gradient-20);}.cls-28{stroke:url(#linear-gradient-21);}.cls-29{stroke:url(#linear-gradient-22);}.cls-30{stroke:url(#linear-gradient-23);}.cls-31{stroke:url(#linear-gradient-24);}.cls-32{stroke:url(#linear-gradient-25);}.cls-33{stroke:url(#linear-gradient-26);}.cls-34{stroke:url(#linear-gradient-27);}.cls-35{stroke:url(#linear-gradient-28);}.cls-36{letter-spacing:-0.07em;}.cls-38{fill:url(#linear-gradient-29);}.cls-39{fill:url(#linear-gradient-30);}</style>
    <clipPath
       id="clip-path">
      <rect
         class="cls-1"
         x="-7.5900002"
         y="-6"
         width="1261.71"
         height="2249"
         id="rect4"
         style="fill:none" />
    </clipPath>
    <linearGradient
       id="linear-gradient"
       x1="677.02002"
       y1="2053.8601"
       x2="1173.84"
       y2="2053.8601"
       gradientUnits="userSpaceOnUse">
      <stop
         offset="0.16"
         stop-color="#ff19b2"
         id="stop7" />
      <stop
         offset="0.85"
         stop-color="#fd0"
         id="stop9" />
    </linearGradient>
    <linearGradient
       id="linear-gradient-2"
       x1="88.669998"
       y1="2053.8601"
       x2="590.96002"
       y2="2053.8601"
       gradientUnits="userSpaceOnUse">
      <stop
         offset="0.16"
         stop-color="#00ffea"
         id="stop12" />
      <stop
         offset="0.63"
         stop-color="#00f962"
         id="stop14" />
      <stop
         offset="0.85"
         stop-color="#00f729"
         id="stop16" />
    </linearGradient>
    <linearGradient
       id="linear-gradient-3"
       x1="531.52002"
       y1="649.03998"
       x2="728.78998"
       y2="649.03998"
       gradientUnits="userSpaceOnUse">
      <stop
         offset="0"
         stop-color="#6600e9"
         id="stop19" />
      <stop
         offset="1"
         stop-color="#ee0057"
         id="stop21" />
    </linearGradient>
    <linearGradient
       id="linear-gradient-4"
       x1="123.61"
       y1="1090.76"
       x2="252.19"
       y2="1090.76"
       xlink:href="#linear-gradient-3"
       gradientTransform="translate(-1481.3785,-503.26392)" />
    <linearGradient
       id="linear-gradient-5"
       x1="184.12"
       y1="984.88"
       x2="191.67999"
       y2="984.88"
       xlink:href="#linear-gradient-3"
       gradientTransform="translate(-1481.3785,-503.26392)" />
    <linearGradient
       id="linear-gradient-6"
       x1="259.75"
       y1="1068.0699"
       x2="282.44"
       y2="1068.0699"
       xlink:href="#linear-gradient-3"
       gradientTransform="translate(-1481.3785,-503.26392)" />
    <linearGradient
       id="linear-gradient-7"
       x1="93.360001"
       y1="1068.0699"
       x2="116.05"
       y2="1068.0699"
       xlink:href="#linear-gradient-3"
       gradientTransform="translate(-1481.3785,-503.26392)" />
    <linearGradient
       id="linear-gradient-8"
       x1="237.60001"
       y1="1009.24"
       x2="255.86"
       y2="1009.24"
       xlink:href="#linear-gradient-3"
       gradientTransform="translate(-1481.3785,-503.26392)" />
    <linearGradient
       id="linear-gradient-9"
       x1="119.94"
       y1="1126.9"
       x2="138.2"
       y2="1126.9"
       xlink:href="#linear-gradient-3"
       gradientTransform="translate(-1481.3785,-503.26392)" />
    <linearGradient
       id="linear-gradient-10"
       x1="237.60001"
       y1="1126.9"
       x2="255.86"
       y2="1126.9"
       xlink:href="#linear-gradient-3"
       gradientTransform="translate(-1481.3785,-503.26392)" />
    <linearGradient
       id="linear-gradient-11"
       x1="119.94"
       y1="1009.24"
       x2="138.2"
       y2="1009.24"
       xlink:href="#linear-gradient-3"
       gradientTransform="translate(-1481.3785,-503.26392)" />
    <linearGradient
       id="linear-gradient-12"
       x1="142.52"
       y1="1047.27"
       x2="191.67999"
       y2="1047.27"
       xlink:href="#linear-gradient-3"
       gradientTransform="translate(-1481.3785,-503.26392)" />
    <linearGradient
       id="linear-gradient-13"
       x1="545.57001"
       y1="1544.08"
       x2="719.06"
       y2="1544.08"
       xlink:href="#linear-gradient-3"
       gradientTransform="translate(-1481.3785,-503.26392)" />
    <linearGradient
       id="linear-gradient-14"
       x1="949.53003"
       y1="1102.08"
       x2="1144.8101"
       y2="1102.08"
       xlink:href="#linear-gradient-3"
       gradientTransform="translate(-1435.2247,-530.187)" />
    <linearGradient
       id="linear-gradient-15"
       x1="86.529999"
       y1="192.17999"
       x2="1173.84"
       y2="192.17999"
       xlink:href="#linear-gradient-3" />
    <linearGradient
       id="linear-gradient-16"
       x1="522.52002"
       y1="1168.9"
       x2="721.31"
       y2="1168.9"
       xlink:href="#linear-gradient-2"
       gradientTransform="translate(-1481.3785,-503.26392)" />
    <linearGradient
       id="linear-gradient-17"
       x1="-6513.1299"
       y1="-2367.9399"
       x2="-6253.2798"
       y2="-2367.9399"
       gradientTransform="rotate(45,-7385.5857,7773.2502)"
       xlink:href="#linear-gradient-2" />
    <linearGradient
       id="linear-gradient-18"
       x1="-6201.8198"
       y1="-2547.02"
       x2="-6199.8198"
       y2="-2547.02"
       gradientTransform="rotate(45,-7385.5857,7773.2502)"
       xlink:href="#linear-gradient-2" />
    <linearGradient
       id="linear-gradient-19"
       x1="-6507.25"
       y1="-2725.48"
       x2="-6251.3999"
       y2="-2725.48"
       gradientTransform="rotate(45,-7385.5857,7773.2502)"
       xlink:href="#linear-gradient-2" />
    <linearGradient
       id="linear-gradient-20"
       x1="-6559.3501"
       y1="-2542.5901"
       x2="-6557.3501"
       y2="-2542.5901"
       gradientTransform="rotate(45,-7385.5857,7773.2502)"
       xlink:href="#linear-gradient-2" />
    <linearGradient
       id="linear-gradient-21"
       x1="-6374.3501"
       y1="-2945.3601"
       x2="-6372.3501"
       y2="-2945.3601"
       gradientTransform="rotate(45,-7385.5857,7773.2502)"
       xlink:href="#linear-gradient-2" />
    <linearGradient
       id="linear-gradient-22"
       x1="-15852.7"
       y1="6532.98"
       x2="-15850.7"
       y2="6532.98"
       gradientTransform="matrix(-0.71,0.71,0.71,0.71,-15483.12,7499.13)"
       xlink:href="#linear-gradient-2" />
    <linearGradient
       id="linear-gradient-23"
       x1="3355.8201"
       y1="6784.8101"
       x2="3357.8201"
       y2="6784.8101"
       gradientTransform="matrix(0.71,-0.71,-0.71,-0.71,3333.33,8621.54)"
       xlink:href="#linear-gradient-2" />
    <linearGradient
       id="linear-gradient-24"
       x1="-6122.52"
       y1="16263.15"
       x2="-6120.52"
       y2="16263.15"
       gradientTransform="rotate(-135,-5955.9806,7517.4291)"
       xlink:href="#linear-gradient-2" />
    <linearGradient
       id="linear-gradient-25"
       x1="781.66998"
       y1="478.56"
       x2="1174.1801"
       y2="871.07001"
       xlink:href="#linear-gradient-2" />
    <linearGradient
       id="linear-gradient-26"
       x1="-10644.55"
       y1="478.56"
       x2="-10252.04"
       y2="871.07001"
       gradientTransform="matrix(-1,0,0,1,-10165.86,0)"
       xlink:href="#linear-gradient-2" />
    <linearGradient
       id="linear-gradient-27"
       x1="-11144.23"
       y1="13429.26"
       x2="-10751.72"
       y2="13821.77"
       gradientTransform="rotate(180,-5332.77,7645.46)"
       xlink:href="#linear-gradient-2" />
    <linearGradient
       id="linear-gradient-28"
       x1="1281.35"
       y1="13429.26"
       x2="1673.86"
       y2="13821.77"
       gradientTransform="matrix(1,0,0,-1,-499.68,15290.92)"
       xlink:href="#linear-gradient-2" />
    <linearGradient
       id="linear-gradient-29"
       x1="112.34"
       y1="317.84"
       x2="123"
       y2="317.84"
       xlink:href="#linear-gradient-2" />
    <linearGradient
       id="linear-gradient-30"
       x1="93.769997"
       y1="350.69"
       x2="136.7"
       y2="350.69"
       xlink:href="#linear-gradient-2" />
    <linearGradient
       inkscape:collect="always"
       xlink:href="#linear-gradient-3"
       id="linearGradient530"
       gradientTransform="translate(20.595868,-915.72393)"
       x1="184.12"
       y1="984.88"
       x2="191.67999"
       y2="984.88" />
    <linearGradient
       inkscape:collect="always"
       xlink:href="#linear-gradient-3"
       id="linearGradient172"
       gradientTransform="translate(20.5958,-917.72392)"
       x1="142.52"
       y1="1047.27"
       x2="191.67999"
       y2="1047.27" />
    <linearGradient
       inkscape:collect="always"
       xlink:href="#linear-gradient-3"
       id="linearGradient175"
       gradientTransform="translate(20.5958,-917.72392)"
       x1="119.94"
       y1="1009.24"
       x2="138.2"
       y2="1009.24" />
    <linearGradient
       inkscape:collect="always"
       xlink:href="#linear-gradient-3"
       id="linearGradient178"
       gradientTransform="translate(20.5958,-917.72392)"
       x1="237.60001"
       y1="1126.9"
       x2="255.86"
       y2="1126.9" />
    <linearGradient
       inkscape:collect="always"
       xlink:href="#linear-gradient-3"
       id="linearGradient181"
       gradientTransform="translate(20.5958,-917.72392)"
       x1="119.94"
       y1="1126.9"
       x2="138.2"
       y2="1126.9" />
    <linearGradient
       inkscape:collect="always"
       xlink:href="#linear-gradient-3"
       id="linearGradient184"
       gradientTransform="translate(20.5958,-917.72392)"
       x1="237.60001"
       y1="1009.24"
       x2="255.86"
       y2="1009.24" />
    <linearGradient
       inkscape:collect="always"
       xlink:href="#linear-gradient-3"
       id="linearGradient187"
       gradientTransform="translate(20.5958,-917.72392)"
       x1="93.360001"
       y1="1068.0699"
       x2="116.05"
       y2="1068.0699" />
    <linearGradient
       inkscape:collect="always"
       xlink:href="#linear-gradient-3"
       id="linearGradient190"
       gradientTransform="translate(20.5958,-917.72392)"
       x1="259.75"
       y1="1068.0699"
       x2="282.44"
       y2="1068.0699" />
    <linearGradient
       inkscape:collect="always"
       xlink:href="#linear-gradient-3"
       id="linearGradient193"
       gradientTransform="translate(20.5958,-917.72392)"
       x1="123.61"
       y1="1090.76"
       x2="252.19"
       y2="1090.76" />
  </defs>
  <title
     id="title53">Artboard 11</title>
  <g
     id="g166">
    <path
       class="cls-11"
       d="m 208.49586,80.49609 a 3.78,3.78 0 0 0 3.78,-3.78 v -15.13 a 3.78,3.78 0 0 0 -7.56,0 v 15.13 a 3.78,3.78 0 0 0 3.78,3.78 z"
       id="use564"
       inkscape:connector-curvature="0"
       style="fill:url(#linearGradient530)" />
    <path
       style="fill:#ffffff"
       inkscape:connector-curvature="0"
       id="path149"
       d="m 115.7058,334.33608 v -21.76 h 24.65 q 6.13,0 6.13,6.17 v 15.59 h -2.6 v -16 q 0,-3.43 -3.44,-3.44 h -8 v 19.45 h -2.6 v -19.45 h -11.5 v 19.45 z"
       class="cls-7" />
    <path
       style="fill:#ffffff"
       inkscape:connector-curvature="0"
       id="path151"
       d="m 153.5958,308.54608 v -3.36 h 2.9 v 3.36 z m 0.13,25.79 v -21.76 h 2.64 v 21.76 z"
       class="cls-7" />
    <path
       style="fill:#ffffff"
       inkscape:connector-curvature="0"
       id="path153"
       d="m 163.2858,328.19608 v -9.45 q 0,-6.17 6.18,-6.17 h 8.35 l 1.43,1.09 v 1.22 h -9.91 q -3.41,0 -3.4,3.44 v 10.29 q 0,3.4 3.4,3.41 h 9.91 v 1.25 l -1.43,1.1 h -8.35 q -6.18,-0.04 -6.18,-6.18 z"
       class="cls-7" />
    <path
       style="fill:#ffffff"
       inkscape:connector-curvature="0"
       id="path155"
       d="m 184.8758,334.33608 v -19.33 q 1.47,-2.43 5.34,-2.43 h 4.07 l 1.43,1.09 v 1.22 h -5.63 a 3.37,3.37 0 0 0 -2.56,0.88 v 18.57 z"
       class="cls-7" />
    <path
       style="fill:#ffffff"
       inkscape:connector-curvature="0"
       id="path157"
       d="m 200.3358,328.19608 v -9.45 q 0,-6.17 6.17,-6.17 h 5.88 q 6.14,0 6.13,6.17 v 9.45 q 0,6.13 -6.13,6.14 h -5.88 q -6.18,0 -6.17,-6.14 z m 2.64,0.42 q 0,3.4 3.41,3.41 h 6.08 q 3.45,0 3.45,-3.41 v -10.29 q 0,-3.43 -3.45,-3.44 h -6.08 q -3.4,0 -3.41,3.44 z"
       class="cls-7" />
    <path
       style="fill:#ffffff"
       inkscape:connector-curvature="0"
       id="path159"
       d="m 235.8658,328.19608 v -22.85 h 2.64 v 7.23 h 8.19 v 2.31 h -8.19 v 13.73 q 0,3.4 3.41,3.41 h 5.2 v 1.25 l -1.43,1.1 h -3.65 q -6.16,-0.04 -6.17,-6.18 z"
       class="cls-7" />
    <path
       style="fill:#ffffff"
       inkscape:connector-curvature="0"
       id="path161"
       d="m 252.3658,308.54608 v -3.36 h 2.9 v 3.36 z m 0.13,25.79 v -21.76 h 2.64 v 21.76 z"
       class="cls-7" />
    <path
       style="fill:#ffffff"
       inkscape:connector-curvature="0"
       id="path163"
       d="m 262.4458,342.73608 v -30.16 h 11.64 q 6.12,0 6.13,6.17 v 9.45 q 0,6.13 -6.13,6.14 h -9 v 8.4 z m 2.65,-10.71 h 9.07 c 2.3,0 3.44,-1.14 3.44,-3.41 v -10.29 c 0,-2.29 -1.14,-3.44 -3.44,-3.44 h -9.07 z"
       class="cls-7" />
    <path
       style="fill:#ffffff"
       inkscape:connector-curvature="0"
       id="path165"
       d="m 286.3458,333.27608 v -1.21 h 9.7 q 3.41,0 3.4,-3.36 c 0,-2.22 -1,-3.49 -3,-3.83 l -4.54,-0.75 q -5.54,-0.93 -5.54,-5.63 0,-5.88 6,-5.88 h 7.35 l 1.42,1.09 v 1.22 h -8.69 q -3.4,0 -3.4,3.36 c 0,1.88 1,3 3,3.32 l 4.54,0.75 c 3.69,0.62 5.54,2.66 5.54,6.14 0,3.92 -2,5.88 -6.05,5.88 h -8.31 z"
       class="cls-7" />
    <path
       style="fill:#ffffff"
       inkscape:connector-curvature="0"
       id="path167"
       d="m 109.2158,383.27608 v -24.94 q 0,-6.13 6.17,-6.14 h 3.66 l 1.42,1.1 v 1.22 h -5.2 q -3.4,0 -3.41,3.4 v 3.61 h 8.19 v 2.31 h -8.19 v 19.44 z"
       class="cls-7" />
    <path
       style="fill:#ffffff"
       inkscape:connector-curvature="0"
       id="path169"
       d="m 129.7958,383.27608 q -6.23,0 -6.22,-6.21 0.01,-6.21 6.22,-6.22 h 8.27 v -3.57 q 0,-3.43 -3.44,-3.44 h -9 v -1.22 l 1.43,-1.09 h 7.47 q 6.14,0 6.14,6.17 v 15.58 z m -3.57,-5.71 q 0,3.4 3.4,3.41 h 8.44 v -7.82 h -8.47 q -3.41,0 -3.4,3.45 z"
       class="cls-7" />
    <path
       style="fill:#ffffff"
       inkscape:connector-curvature="0"
       id="path171"
       d="m 147.5158,377.17608 v -9.45 q 0,-6.17 6.18,-6.17 h 8.35 l 1.43,1.09 v 1.22 h -9.88 q -3.41,0 -3.4,3.44 v 10.29 q 0,3.4 3.4,3.41 h 9.91 v 1.21 l -1.43,1.09 h -8.38 q -6.18,-0.03 -6.18,-6.13 z"
       class="cls-7" />
    <path
       style="fill:#ffffff"
       inkscape:connector-curvature="0"
       id="path173"
       d="m 169.1058,377.17608 v -15.62 h 2.65 v 16 q 0,3.4 3.4,3.41 h 9.11 v -19.45 h 2.61 v 21.76 h -11.6 q -6.17,0 -6.17,-6.1 z"
       class="cls-7" />
    <path
       style="fill:#ffffff"
       inkscape:connector-curvature="0"
       id="path175"
       d="m 194.0558,377.97608 v -25.7 h 2.64 v 26 a 2.75,2.75 0 0 0 3,3.07 v 2.31 q -5.64,-0.05 -5.64,-5.68 z"
       class="cls-7" />
    <path
       style="fill:#ffffff"
       inkscape:connector-curvature="0"
       id="path177"
       d="m 204.7658,377.17608 v -22.85 h 2.64 v 7.23 h 8.19 v 2.31 h -8.19 v 13.73 c 0,2.27 1.14,3.41 3.4,3.41 h 5.21 v 1.21 l -1.42,1.06 h -3.65 q -6.19,0 -6.18,-6.1 z"
       class="cls-7" />
    <path
       style="fill:#ffffff"
       inkscape:connector-curvature="0"
       id="path179"
       d="m 226.4358,383.27608 q -6.22,0 -6.22,-6.21 0,-6.21 6.22,-6.22 h 8.27 v -3.57 q 0,-3.43 -3.44,-3.44 h -9 v -1.22 l 1.43,-1.09 h 7.47 q 6.13,0 6.13,6.17 v 15.58 z m -3.57,-5.71 q 0,3.4 3.4,3.41 h 8.44 v -7.82 h -8.44 q -3.4,0 -3.4,3.45 z"
       class="cls-7" />
    <path
       style="fill:#ffffff"
       inkscape:connector-curvature="0"
       id="path181"
       d="m 244.1558,377.17608 v -9.45 q 0,-6.17 6.18,-6.17 h 9 v -9.28 h 2.61 v 31 h -11.61 q -6.18,0 -6.18,-6.1 z m 2.65,0.42 q 0,3.4 3.4,3.41 h 9.11 v -17.14 h -9.11 q -3.41,0 -3.4,3.44 z"
       class="cls-7" />
    <path
       style="fill:#ffffff"
       inkscape:connector-curvature="0"
       id="path183"
       d="m 268.9358,377.17608 v -9.45 q 0,-6.17 6.17,-6.17 h 5.49 q 6.13,0 6.14,6.17 v 5.84 h -15.14 v 4 q 0,3.4 3.4,3.41 h 10.88 v 1.21 l -1.43,1.09 h -9.33 q -6.17,0 -6.18,-6.1 z m 2.66,-5.9 h 12.5 v -4 q 0,-3.43 -3.44,-3.44 h -5.67 q -3.4,0 -3.4,3.44 z"
       class="cls-7" />
    <path
       style="fill:#ffffff"
       inkscape:connector-curvature="0"
       id="path185"
       d="m 292.8358,382.21608 v -1.21 h 9.7 c 2.27,0 3.4,-1.13 3.4,-3.37 0,-2.24 -1,-3.48 -3,-3.82 l -4.54,-0.75 q -5.53,-0.93 -5.54,-5.63 0,-5.88 6,-5.88 h 7.35 l 1.43,1.09 v 1.22 h -8.69 q -3.4,0 -3.4,3.36 c 0,1.87 1,3 3,3.32 l 4.54,0.75 q 5.53,0.93 5.54,6.13 0,5.88 -6,5.88 h -8.31 z"
       class="cls-7" />
    <path
       style="fill:url(#linearGradient193)"
       inkscape:connector-curvature="0"
       id="path311"
       d="m 208.4958,86.06608 a 64.27,64.27 0 0 0 -22.69,124.41 v 34.41 a 3.78,3.78 0 0 0 3.78,3.78 h 3.78 v 7.61 a 3.78,3.78 0 0 0 3.79,3.79 h 22.69 a 3.78,3.78 0 0 0 3.75,-3.79 v -7.56 h 3.78 a 3.78,3.78 0 0 0 3.78,-3.78 v -34.46 a 64.27,64.27 0 0 0 -22.69,-124.41 z m 11.35,155 a 3.78,3.78 0 0 0 -3.79,3.78 v 7.56 h -15.12 v -7.56 a 3.78,3.78 0 0 0 -3.78,-3.78 h -3.79 v -18.91 h 30.23 v 18.91 z m 6.38,-36.9 a 3.77,3.77 0 0 0 -2.6,3.59 v 6.84 h -30.26 v -6.84 a 3.77,3.77 0 0 0 -2.6,-3.59 56.72,56.72 0 1 1 35.46,0 z"
       class="cls-10" />
    <path
       style="fill:url(#linearGradient190)"
       inkscape:connector-curvature="0"
       id="path315"
       d="m 299.2558,146.56608 h -15.13 a 3.78,3.78 0 0 0 0,7.56 h 15.13 a 3.78,3.78 0 0 0 0,-7.56 z"
       class="cls-12" />
    <path
       style="fill:url(#linearGradient187)"
       inkscape:connector-curvature="0"
       id="path317"
       d="m 132.8658,146.56608 h -15.13 a 3.78,3.78 0 0 0 0,7.56 h 15.13 a 3.78,3.78 0 1 0 0,-7.56 z"
       class="cls-13" />
    <path
       style="fill:url(#linearGradient184)"
       inkscape:connector-curvature="0"
       id="path319"
       d="m 269.9958,83.49608 -10.69,10.7 a 3.78,3.78 0 1 0 5.35,5.34 l 10.69,-10.69 a 3.7830213,3.7830213 0 1 0 -5.35,-5.35 z"
       class="cls-14" />
    <path
       style="fill:url(#linearGradient181)"
       inkscape:connector-curvature="0"
       id="path321"
       d="m 152.3358,201.15608 -10.69,10.69 a 3.7830213,3.7830213 0 1 0 5.35,5.35 l 10.69,-10.69 a 3.7830213,3.7830213 0 1 0 -5.35,-5.35 z"
       class="cls-15" />
    <path
       style="fill:url(#linearGradient178)"
       inkscape:connector-curvature="0"
       id="path323"
       d="m 264.6558,201.15608 a 3.7830213,3.7830213 0 1 0 -5.35,5.35 l 10.69,10.69 a 3.7830213,3.7830213 0 0 0 5.35,-5.35 z"
       class="cls-16" />
    <path
       style="fill:url(#linearGradient175)"
       inkscape:connector-curvature="0"
       id="path325"
       d="m 152.3358,99.53608 a 3.78,3.78 0 0 0 5.35,-5.34 l -10.69,-10.7 a 3.7830213,3.7830213 0 1 0 -5.35,5.35 z"
       class="cls-17" />
    <path
       style="fill:url(#linearGradient172)"
       inkscape:connector-curvature="0"
       id="path327"
       d="m 208.4958,104.96608 a 45.43,45.43 0 0 0 -45.38,45.38 3.79,3.79 0 0 0 7.57,0 37.85,37.85 0 0 1 37.81,-37.81 3.79,3.79 0 0 0 0,-7.57 z"
       class="cls-18" />
    <use
       id="use478"
       xlink:href="#path149"
       y="0"
       x="0"
       width="100%"
       height="100%" />
    <use
       id="use480"
       xlink:href="#path151"
       y="0"
       x="0"
       width="100%"
       height="100%" />
    <use
       id="use482"
       xlink:href="#path153"
       y="0"
       x="0"
       width="100%"
       height="100%" />
    <use
       id="use484"
       xlink:href="#path155"
       y="0"
       x="0"
       width="100%"
       height="100%" />
    <use
       id="use486"
       xlink:href="#path157"
       y="0"
       x="0"
       width="100%"
       height="100%" />
    <use
       id="use488"
       xlink:href="#path159"
       y="0"
       x="0"
       width="100%"
       height="100%" />
    <use
       id="use490"
       xlink:href="#path161"
       y="0"
       x="0"
       width="100%"
       height="100%" />
    <use
       id="use492"
       xlink:href="#path163"
       y="0"
       x="0"
       width="100%"
       height="100%" />
    <use
       id="use494"
       xlink:href="#path165"
       y="0"
       x="0"
       width="100%"
       height="100%" />
    <use
       id="use496"
       xlink:href="#path167"
       y="0"
       x="0"
       width="100%"
       height="100%" />
    <use
       id="use498"
       xlink:href="#path169"
       y="0"
       x="0"
       width="100%"
       height="100%" />
    <use
       id="use500"
       xlink:href="#path171"
       y="0"
       x="0"
       width="100%"
       height="100%" />
    <use
       id="use502"
       xlink:href="#path173"
       y="0"
       x="0"
       width="100%"
       height="100%" />
    <use
       id="use504"
       xlink:href="#path175"
       y="0"
       x="0"
       width="100%"
       height="100%" />
    <use
       id="use506"
       xlink:href="#path177"
       y="0"
       x="0"
       width="100%"
       height="100%" />
    <use
       id="use508"
       xlink:href="#path179"
       y="0"
       x="0"
       width="100%"
       height="100%" />
    <use
       id="use510"
       xlink:href="#path181"
       y="0"
       x="0"
       width="100%"
       height="100%" />
    <use
       id="use512"
       xlink:href="#path183"
       y="0"
       x="0"
       width="100%"
       height="100%" />
    <use
       id="use514"
       xlink:href="#path185"
       y="0"
       x="0"
       width="100%"
       height="100%" />
    <use
       id="use562"
       xlink:href="#path311"
       y="0"
       x="0"
       width="100%"
       height="100%" />
    <use
       id="use566"
       xlink:href="#path315"
       y="0"
       x="0"
       width="100%"
       height="100%" />
    <use
       id="use568"
       xlink:href="#path317"
       y="0"
       x="0"
       width="100%"
       height="100%" />
    <use
       id="use570"
       xlink:href="#path319"
       y="0"
       x="0"
       width="100%"
       height="100%" />
    <use
       id="use572"
       xlink:href="#path321"
       y="0"
       x="0"
       width="100%"
       height="100%" />
    <use
       id="use574"
       xlink:href="#path323"
       y="0"
       x="0"
       width="100%"
       height="100%" />
    <use
       id="use576"
       xlink:href="#path325"
       y="0"
       x="0"
       width="100%"
       height="100%" />
    <use
       id="use578"
       xlink:href="#path327"
       y="0"
       x="0"
       width="100%"
       height="100%" />
  </g>
</svg>
