<?xml version="1.0" encoding="UTF-8" standalone="no"?>
<svg
   xmlns:dc="http://purl.org/dc/elements/1.1/"
   xmlns:cc="http://creativecommons.org/ns#"
   xmlns:rdf="http://www.w3.org/1999/02/22-rdf-syntax-ns#"
   xmlns:svg="http://www.w3.org/2000/svg"
   xmlns="http://www.w3.org/2000/svg"
   xmlns:xlink="http://www.w3.org/1999/xlink"
   xmlns:sodipodi="http://sodipodi.sourceforge.net/DTD/sodipodi-0.dtd"
   xmlns:inkscape="http://www.inkscape.org/namespaces/inkscape"
   id="Layer_1"
   data-name="Layer 1"
   viewBox="0 0 419.33334 440.92003"
   version="1.1"
   sodipodi:docname="top_grid.svg"
   inkscape:version="0.92.4 (unknown)"
   width="419.33334"
   height="440.92001"
   inkscape:export-filename="/home/luis/Projects/udlainspiramobile/src/assets/menu/top_grid.svg.png"
   inkscape:export-xdpi="96"
   inkscape:export-ydpi="96">
  <metadata
     id="metadata384">
    <rdf:RDF>
      <cc:Work
         rdf:about="">
        <dc:format>image/svg+xml</dc:format>
        <dc:type
           rdf:resource="http://purl.org/dc/dcmitype/StillImage" />
        <dc:title>Artboard 11</dc:title>
      </cc:Work>
    </rdf:RDF>
  </metadata>
  <sodipodi:namedview
     pagecolor="#ffffff"
     bordercolor="#666666"
     borderopacity="1"
     objecttolerance="10"
     gridtolerance="10"
     guidetolerance="10"
     inkscape:pageopacity="0"
     inkscape:pageshadow="2"
     inkscape:window-width="1301"
     inkscape:window-height="744"
     id="namedview382"
     showgrid="false"
     inkscape:zoom="1.3403401"
     inkscape:cx="244.62919"
     inkscape:cy="214.51892"
     inkscape:window-x="65"
     inkscape:window-y="24"
     inkscape:window-maximized="1"
     inkscape:current-layer="Layer_1" />
  <defs
     id="defs51">
    <style
       id="style2">.cls-1,.cls-24,.cls-25,.cls-26,.cls-27,.cls-28,.cls-29,.cls-30,.cls-31,.cls-32,.cls-33,.cls-34,.cls-35{fill:none;}.cls-2{fill:#1d023f;}.cls-3{opacity:0.14;}.cls-4{clip-path:url(#clip-path);}.cls-5{fill:url(#linear-gradient);}.cls-6{fill:url(#linear-gradient-2);}.cls-23,.cls-36,.cls-7{fill:#fff;}.cls-8{font-size:38.78px;fill:#12ff5a;letter-spacing:-0.01em;}.cls-23,.cls-36,.cls-8{font-family:Oxanium-Regular, Oxanium;}.cls-9{fill:url(#linear-gradient-3);}.cls-10{fill:url(#linear-gradient-4);}.cls-11{fill:url(#linear-gradient-5);}.cls-12{fill:url(#linear-gradient-6);}.cls-13{fill:url(#linear-gradient-7);}.cls-14{fill:url(#linear-gradient-8);}.cls-15{fill:url(#linear-gradient-9);}.cls-16{fill:url(#linear-gradient-10);}.cls-17{fill:url(#linear-gradient-11);}.cls-18{fill:url(#linear-gradient-12);}.cls-19{fill:url(#linear-gradient-13);}.cls-20{fill:url(#linear-gradient-14);}.cls-21{fill:url(#linear-gradient-15);}.cls-22{fill:url(#linear-gradient-16);}.cls-23,.cls-36{font-size:64px;}.cls-23,.cls-37{letter-spacing:-0.03em;}.cls-24,.cls-25,.cls-26,.cls-27,.cls-28,.cls-29,.cls-30,.cls-31,.cls-32,.cls-33,.cls-34,.cls-35{stroke-miterlimit:10;stroke-width:2px;}.cls-24{stroke:url(#linear-gradient-17);}.cls-25{stroke:url(#linear-gradient-18);}.cls-26{stroke:url(#linear-gradient-19);}.cls-27{stroke:url(#linear-gradient-20);}.cls-28{stroke:url(#linear-gradient-21);}.cls-29{stroke:url(#linear-gradient-22);}.cls-30{stroke:url(#linear-gradient-23);}.cls-31{stroke:url(#linear-gradient-24);}.cls-32{stroke:url(#linear-gradient-25);}.cls-33{stroke:url(#linear-gradient-26);}.cls-34{stroke:url(#linear-gradient-27);}.cls-35{stroke:url(#linear-gradient-28);}.cls-36{letter-spacing:-0.07em;}.cls-38{fill:url(#linear-gradient-29);}.cls-39{fill:url(#linear-gradient-30);}</style>
    <clipPath
       id="clip-path">
      <rect
         class="cls-1"
         x="-7.5900002"
         y="-6"
         width="1261.71"
         height="2249"
         id="rect4"
         style="fill:none" />
    </clipPath>
    <linearGradient
       id="linear-gradient"
       x1="677.02002"
       y1="2053.8601"
       x2="1173.84"
       y2="2053.8601"
       gradientUnits="userSpaceOnUse">
      <stop
         offset="0.16"
         stop-color="#ff19b2"
         id="stop7" />
      <stop
         offset="0.85"
         stop-color="#fd0"
         id="stop9" />
    </linearGradient>
    <linearGradient
       id="linear-gradient-2"
       x1="88.669998"
       y1="2053.8601"
       x2="590.96002"
       y2="2053.8601"
       gradientUnits="userSpaceOnUse">
      <stop
         offset="0.16"
         stop-color="#00ffea"
         id="stop12" />
      <stop
         offset="0.63"
         stop-color="#00f962"
         id="stop14" />
      <stop
         offset="0.85"
         stop-color="#00f729"
         id="stop16" />
    </linearGradient>
    <linearGradient
       id="linear-gradient-3"
       x1="531.52002"
       y1="649.03998"
       x2="728.78998"
       y2="649.03998"
       gradientUnits="userSpaceOnUse">
      <stop
         offset="0"
         stop-color="#6600e9"
         id="stop19" />
      <stop
         offset="1"
         stop-color="#ee0057"
         id="stop21" />
    </linearGradient>
    <linearGradient
       id="linear-gradient-4"
       x1="123.61"
       y1="1090.76"
       x2="252.19"
       y2="1090.76"
       xlink:href="#linear-gradient-3"
       gradientTransform="translate(-1481.3785,-503.26392)" />
    <linearGradient
       id="linear-gradient-5"
       x1="184.12"
       y1="984.88"
       x2="191.67999"
       y2="984.88"
       xlink:href="#linear-gradient-3"
       gradientTransform="translate(-1481.3785,-503.26392)" />
    <linearGradient
       id="linear-gradient-6"
       x1="259.75"
       y1="1068.0699"
       x2="282.44"
       y2="1068.0699"
       xlink:href="#linear-gradient-3"
       gradientTransform="translate(-1481.3785,-503.26392)" />
    <linearGradient
       id="linear-gradient-7"
       x1="93.360001"
       y1="1068.0699"
       x2="116.05"
       y2="1068.0699"
       xlink:href="#linear-gradient-3"
       gradientTransform="translate(-1481.3785,-503.26392)" />
    <linearGradient
       id="linear-gradient-8"
       x1="237.60001"
       y1="1009.24"
       x2="255.86"
       y2="1009.24"
       xlink:href="#linear-gradient-3"
       gradientTransform="translate(-1481.3785,-503.26392)" />
    <linearGradient
       id="linear-gradient-9"
       x1="119.94"
       y1="1126.9"
       x2="138.2"
       y2="1126.9"
       xlink:href="#linear-gradient-3"
       gradientTransform="translate(-1481.3785,-503.26392)" />
    <linearGradient
       id="linear-gradient-10"
       x1="237.60001"
       y1="1126.9"
       x2="255.86"
       y2="1126.9"
       xlink:href="#linear-gradient-3"
       gradientTransform="translate(-1481.3785,-503.26392)" />
    <linearGradient
       id="linear-gradient-11"
       x1="119.94"
       y1="1009.24"
       x2="138.2"
       y2="1009.24"
       xlink:href="#linear-gradient-3"
       gradientTransform="translate(-1481.3785,-503.26392)" />
    <linearGradient
       id="linear-gradient-12"
       x1="142.52"
       y1="1047.27"
       x2="191.67999"
       y2="1047.27"
       xlink:href="#linear-gradient-3"
       gradientTransform="translate(-1481.3785,-503.26392)" />
    <linearGradient
       id="linear-gradient-13"
       x1="545.57001"
       y1="1544.08"
       x2="719.06"
       y2="1544.08"
       xlink:href="#linear-gradient-3"
       gradientTransform="translate(-1481.3785,-503.26392)" />
    <linearGradient
       id="linear-gradient-14"
       x1="949.53003"
       y1="1102.08"
       x2="1144.8101"
       y2="1102.08"
       xlink:href="#linear-gradient-3"
       gradientTransform="translate(-1435.2247,-530.187)" />
    <linearGradient
       id="linear-gradient-15"
       x1="86.529999"
       y1="192.17999"
       x2="1173.84"
       y2="192.17999"
       xlink:href="#linear-gradient-3" />
    <linearGradient
       id="linear-gradient-16"
       x1="522.52002"
       y1="1168.9"
       x2="721.31"
       y2="1168.9"
       xlink:href="#linear-gradient-2"
       gradientTransform="translate(-1481.3785,-503.26392)" />
    <linearGradient
       id="linear-gradient-17"
       x1="-6513.1299"
       y1="-2367.9399"
       x2="-6253.2798"
       y2="-2367.9399"
       gradientTransform="rotate(45,-7385.5857,7773.2502)"
       xlink:href="#linear-gradient-2" />
    <linearGradient
       id="linear-gradient-18"
       x1="-6201.8198"
       y1="-2547.02"
       x2="-6199.8198"
       y2="-2547.02"
       gradientTransform="rotate(45,-7385.5857,7773.2502)"
       xlink:href="#linear-gradient-2" />
    <linearGradient
       id="linear-gradient-19"
       x1="-6507.25"
       y1="-2725.48"
       x2="-6251.3999"
       y2="-2725.48"
       gradientTransform="rotate(45,-7385.5857,7773.2502)"
       xlink:href="#linear-gradient-2" />
    <linearGradient
       id="linear-gradient-20"
       x1="-6559.3501"
       y1="-2542.5901"
       x2="-6557.3501"
       y2="-2542.5901"
       gradientTransform="rotate(45,-7385.5857,7773.2502)"
       xlink:href="#linear-gradient-2" />
    <linearGradient
       id="linear-gradient-21"
       x1="-6374.3501"
       y1="-2945.3601"
       x2="-6372.3501"
       y2="-2945.3601"
       gradientTransform="rotate(45,-7385.5857,7773.2502)"
       xlink:href="#linear-gradient-2" />
    <linearGradient
       id="linear-gradient-22"
       x1="-15852.7"
       y1="6532.98"
       x2="-15850.7"
       y2="6532.98"
       gradientTransform="matrix(-0.71,0.71,0.71,0.71,-15483.12,7499.13)"
       xlink:href="#linear-gradient-2" />
    <linearGradient
       id="linear-gradient-23"
       x1="3355.8201"
       y1="6784.8101"
       x2="3357.8201"
       y2="6784.8101"
       gradientTransform="matrix(0.71,-0.71,-0.71,-0.71,3333.33,8621.54)"
       xlink:href="#linear-gradient-2" />
    <linearGradient
       id="linear-gradient-24"
       x1="-6122.52"
       y1="16263.15"
       x2="-6120.52"
       y2="16263.15"
       gradientTransform="rotate(-135,-5955.9806,7517.4291)"
       xlink:href="#linear-gradient-2" />
    <linearGradient
       id="linear-gradient-25"
       x1="781.66998"
       y1="478.56"
       x2="1174.1801"
       y2="871.07001"
       xlink:href="#linear-gradient-2" />
    <linearGradient
       id="linear-gradient-26"
       x1="-10644.55"
       y1="478.56"
       x2="-10252.04"
       y2="871.07001"
       gradientTransform="matrix(-1,0,0,1,-10165.86,0)"
       xlink:href="#linear-gradient-2" />
    <linearGradient
       id="linear-gradient-27"
       x1="-11144.23"
       y1="13429.26"
       x2="-10751.72"
       y2="13821.77"
       gradientTransform="rotate(180,-5332.77,7645.46)"
       xlink:href="#linear-gradient-2" />
    <linearGradient
       id="linear-gradient-28"
       x1="1281.35"
       y1="13429.26"
       x2="1673.86"
       y2="13821.77"
       gradientTransform="matrix(1,0,0,-1,-499.68,15290.92)"
       xlink:href="#linear-gradient-2" />
    <linearGradient
       id="linear-gradient-29"
       x1="112.34"
       y1="317.84"
       x2="123"
       y2="317.84"
       xlink:href="#linear-gradient-2" />
    <linearGradient
       id="linear-gradient-30"
       x1="93.769997"
       y1="350.69"
       x2="136.7"
       y2="350.69"
       xlink:href="#linear-gradient-2" />
    <linearGradient
       inkscape:collect="always"
       xlink:href="#linear-gradient-3"
       id="linearGradient688"
       gradientUnits="userSpaceOnUse"
       gradientTransform="translate(-424.14779,-486.95623)"
       x1="531.52002"
       y1="649.03998"
       x2="728.78998"
       y2="649.03998" />
  </defs>
  <title
     id="title53">Artboard 11</title>
  <g
     id="g654"
     transform="translate(10,-2)">
    <path
       style="fill:#ffffff"
       inkscape:connector-curvature="0"
       id="path233"
       d="m 93.212213,332.15378 v -19.32 c 1,-1.62 2.76,-2.44 5.34,-2.44 h 4.069997 l 1.43,1.09 v 1.22 h -5.629997 a 3.41,3.41 0 0 0 -2.56,0.88 v 18.57 z"
       class="cls-7" />
    <path
       style="fill:#ffffff"
       inkscape:connector-curvature="0"
       id="path235"
       d="m 108.67217,326.04378 v -9.45 q 0,-6.18 6.17,-6.18 h 5.46 q 6.13,0 6.13,6.18 v 5.83 h -15.12 v 4 c 0,2.26 1.14,3.4 3.41,3.4 h 10.87 v 1.22 l -1.42,1.09 h -9.32 q -6.17,0.02 -6.18,-6.09 z m 2.64,-5.93 h 12.54 v -3.94 q 0,-3.45 -3.44,-3.45 h -5.67 q -3.4,0 -3.41,3.45 z"
       class="cls-7" />
    <path
       style="fill:#ffffff"
       inkscape:connector-curvature="0"
       id="path237"
       d="m 132.56217,331.04378 v -1.2 h 9.71 q 3.41,0 3.4,-3.36 c 0,-2.21 -1,-3.49 -3,-3.82 l -4.53,-0.76 c -3.7,-0.62 -5.55,-2.49 -5.55,-5.63 0,-3.92 2,-5.88 6,-5.88 h 7.35 l 1.43,1.09 v 1.22 h -8.69 q -3.4,0 -3.41,3.36 c 0,1.88 1,3 3,3.32 l 4.53,0.76 c 3.7,0.61 5.55,2.66 5.55,6.13 q 0,5.88 -6,5.88 h -8.32 z"
       class="cls-7" />
    <path
       style="fill:#ffffff"
       inkscape:connector-curvature="0"
       id="path239"
       d="m 154.45217,326.04378 v -9.45 q 0,-6.18 6.17,-6.18 h 5.46 q 6.13,0 6.13,6.18 v 5.83 h -15.12 v 4 c 0,2.26 1.14,3.4 3.4,3.4 h 10.88 v 1.22 l -1.43,1.09 h -9.32 q -6.18,0.02 -6.17,-6.09 z m 2.64,-5.93 h 12.52 v -3.94 q 0,-3.45 -3.45,-3.45 h -5.67 c -2.26,0 -3.4,1.15 -3.4,3.45 z"
       class="cls-7" />
    <path
       style="fill:#ffffff"
       inkscape:connector-curvature="0"
       id="path241"
       d="m 179.06217,332.15378 v -19.32 c 1,-1.62 2.75,-2.44 5.33,-2.44 h 4.08 l 1.42,1.09 v 1.22 h -5.62 a 3.43,3.43 0 0 0 -2.57,0.88 v 18.57 z"
       class="cls-7" />
    <path
       style="fill:#ffffff"
       inkscape:connector-curvature="0"
       id="path243"
       d="m 192.29217,310.90378 0.29,-0.51 h 2.27 l 6.76,19.45 h 1 l 6.76,-19.45 h 2.27 l 0.33,0.51 -7.56,21.25 h -4.56 z"
       class="cls-7" />
    <path
       style="fill:#ffffff"
       inkscape:connector-curvature="0"
       id="path245"
       d="m 221.27217,332.15378 q -6.23,0 -6.22,-6.22 0.01,-6.22 6.22,-6.21 h 8.27 v -3.57 q 0,-3.45 -3.44,-3.45 h -9 v -1.22 l 1.43,-1.09 h 7.47 q 6.14,0 6.13,6.18 v 15.58 z m -3.57,-5.71 c 0,2.26 1.13,3.4 3.4,3.4 h 8.44 v -7.8 h -8.44 c -2.27,0 -3.4,1.14 -3.4,3.44 z"
       class="cls-7" />
    <path
       style="fill:#ffffff"
       inkscape:connector-curvature="0"
       id="path247"
       d="m 249.66217,326.04378 v -22.87 h 2.64 v 7.22 h 8.19 v 2.31 h -8.19 v 13.74 c 0,2.26 1.14,3.4 3.41,3.4 h 5.2 v 1.2 l -1.42,1.09 h -3.64 q -6.18,0.02 -6.19,-6.09 z"
       class="cls-7" />
    <path
       style="fill:#ffffff"
       inkscape:connector-curvature="0"
       id="path249"
       d="m 266.12217,326.04378 v -15.65 h 2.65 v 16 c 0,2.26 1.13,3.4 3.4,3.4 h 9.11 v -19.4 h 2.57 v 21.76 h -11.55 q -6.18,0 -6.18,-6.11 z"
       class="cls-7" />
    <path
       style="fill:#ffffff"
       inkscape:connector-curvature="0"
       id="path251"
       d="m 290.35217,331.04378 v -1.2 h 9.71 q 3.4,0 3.4,-3.36 c 0,-2.21 -1,-3.49 -3,-3.82 l -4.53,-0.76 c -3.7,-0.62 -5.55,-2.49 -5.55,-5.63 0,-3.92 2,-5.88 6,-5.88 h 7.35 l 1.43,1.09 v 1.22 h -8.71 q -3.4,0 -3.41,3.36 c 0,1.88 1,3 3,3.32 l 4.53,0.76 c 3.7,0.61 5.55,2.66 5.55,6.13 q 0,5.88 -6,5.88 h -8.32 z"
       class="cls-7" />
    <path
       style="fill:#ffffff"
       inkscape:connector-curvature="0"
       id="path253"
       d="m 79.522213,375.04378 v -9.45 q 0,-6.18 6.17,-6.18 h 5.46 q 6.13,0 6.14,6.18 v 5.83 h -15.12 v 4 c 0,2.26 1.13,3.4 3.4,3.4 h 10.88 v 1.22 l -1.43,1.09 h -9.33 q -6.16,0 -6.17,-6.09 z m 2.65,-5.93 h 12.51 v -3.94 q 0,-3.45 -3.44,-3.45 h -5.67 q -3.41,0 -3.4,3.45 z"
       class="cls-7" />
    <path
       style="fill:#ffffff"
       inkscape:connector-curvature="0"
       id="path255"
       d="m 102.16221,380.58378 7.84996,-10.54 -7.55996,-10.12 0.25,-0.55 h 2.44 l 6.41996,8.78 6.39,-8.78 h 2.44 l 0.25,0.55 -7.56,10.12 7.89,10.54 -0.25,0.55 h -2.44 l -6.72,-9.24 -6.70996,9.24 h -2.43 z"
       class="cls-7" />
    <path
       style="fill:#ffffff"
       inkscape:connector-curvature="0"
       id="path257"
       d="m 126.10217,389.53378 v -30.16 h 11.63 q 6.14,0 6.13,6.18 v 9.49 q 0,6.12 -6.13,6.13 h -9 v 8.4 z m 2.64,-10.71 h 9.11 c 2.3,0 3.45,-1.14 3.45,-3.4 v -10.29 q 0,-3.45 -3.45,-3.45 h -9.07 z"
       class="cls-7" />
    <path
       style="fill:#ffffff"
       inkscape:connector-curvature="0"
       id="path259"
       d="m 150.54217,375.04378 v -9.45 q 0,-6.18 6.17,-6.18 h 5.46 q 6.13,0 6.13,6.18 v 5.83 h -15.12 v 4 c 0,2.26 1.14,3.4 3.41,3.4 h 10.88 v 1.22 l -1.43,1.09 h -9.33 q -6.17,0 -6.17,-6.09 z m 2.64,-5.93 h 12.52 v -3.94 q 0,-3.45 -3.44,-3.45 h -5.67 q -3.4,0 -3.41,3.45 z"
       class="cls-7" />
    <path
       style="fill:#ffffff"
       inkscape:connector-curvature="0"
       id="path261"
       d="m 175.15217,381.13378 v -19.32 q 1.47,-2.44 5.33,-2.44 h 4.08 l 1.43,1.09 v 1.22 h -5.63 a 3.41,3.41 0 0 0 -2.56,0.88 v 18.57 z"
       class="cls-7" />
    <path
       style="fill:#ffffff"
       inkscape:connector-curvature="0"
       id="path263"
       d="m 190.85217,355.34378 v -3.36 h 2.89 v 3.36 z m 0.12,25.79 v -21.76 h 2.65 v 21.76 z"
       class="cls-7" />
    <path
       style="fill:#ffffff"
       inkscape:connector-curvature="0"
       id="path265"
       d="m 200.56217,375.04378 v -9.45 q 0,-6.18 6.17,-6.18 h 5.46 q 6.13,0 6.14,6.18 v 5.83 h -15.12 v 4 c 0,2.26 1.13,3.4 3.4,3.4 h 10.88 v 1.22 l -1.43,1.09 h -9.33 q -6.17,0 -6.17,-6.09 z m 2.65,-5.93 h 12.51 v -3.94 q 0,-3.45 -3.44,-3.45 h -5.67 q -3.4,0 -3.4,3.45 z"
       class="cls-7" />
    <path
       style="fill:#ffffff"
       inkscape:connector-curvature="0"
       id="path267"
       d="m 225.34217,381.13378 v -21.76 h 11.63 q 6.14,0 6.13,6.18 v 15.58 h -2.6 v -16 q 0,-3.45 -3.44,-3.45 h -9.08 v 19.45 z"
       class="cls-7" />
    <path
       style="fill:#ffffff"
       inkscape:connector-curvature="0"
       id="path269"
       d="m 249.95217,375.04378 v -9.45 q 0,-6.18 6.18,-6.18 h 8.35 l 1.43,1.09 v 1.22 h -9.91 q -3.4,0 -3.4,3.45 v 10.29 c 0,2.26 1.13,3.4 3.4,3.4 h 9.91 v 1.18 l -1.43,1.09 h -8.35 q -6.18,0 -6.18,-6.09 z"
       class="cls-7" />
    <path
       style="fill:#ffffff"
       inkscape:connector-curvature="0"
       id="path271"
       d="m 271.58217,355.34378 v -3.36 h 2.9 v 3.36 z m 0.13,25.79 v -21.76 h 2.64 v 21.76 z"
       class="cls-7" />
    <path
       style="fill:#ffffff"
       inkscape:connector-curvature="0"
       id="path273"
       d="m 286.70217,381.13378 q -6.21,0 -6.22,-6.22 -0.01,-6.22 6.22,-6.21 h 8.27 v -3.57 c 0,-2.3 -1.14,-3.45 -3.44,-3.45 h -9 v -1.22 l 1.43,-1.09 h 7.48 q 6.12,0 6.13,6.18 v 15.58 z m -3.57,-5.71 c 0,2.26 1.13,3.4 3.4,3.4 h 8.44 v -7.78 h -8.44 c -2.27,0 -3.4,1.14 -3.4,3.44 z"
       class="cls-7" />
    <path
       style="fill:#ffffff"
       inkscape:connector-curvature="0"
       id="path275"
       d="m 303.85217,380.04378 v -1.22 h 9.7 q 3.4,0 3.4,-3.36 c 0,-2.21 -1,-3.49 -3,-3.82 l -4.54,-0.76 c -3.69,-0.62 -5.54,-2.49 -5.54,-5.63 q 0,-5.88 6,-5.88 h 7.35 l 1.43,1.09 v 1.22 h -8.69 q -3.4,0 -3.4,3.36 c 0,1.88 1,3 3,3.32 l 4.54,0.76 c 3.69,0.61 5.54,2.66 5.54,6.13 q 0,5.88 -6.05,5.88 h -8.31 z"
       class="cls-7" />
    <path
       style="fill:url(#linearGradient688)"
       inkscape:connector-curvature="0"
       id="path309"
       d="m 270.60217,124.87378 32.91,-32.909986 a 3.81,3.81 0 0 0 0,-5.39 3.87,3.87 0 0 0 -2.58,-1.13 l 0.11,0.23 -17.9,-0.61 -0.61,-17.9 a 3.8,3.8 0 0 0 -6.51,-2.55 l -32.88,32.72 a 3.81,3.81 0 0 0 -1.1,2.819996 v 3.81 a 85.94,85.94 0 1 0 22,21.99999 h 3.81 a 3.85,3.85 0 0 0 2.75,-1.09 z m 1.14,49.9 a 78.39,78.39 0 1 1 -29.22,-60.99999 l 0.2,6.36999 -15.24,15.23 a 52.21,52.21 0 1 0 5.33,5.41 l 15.24,-15.23 6.28,0.22 a 78.26,78.26 0 0 1 17.41,49 z m -80.83,2.56 a 3.82,3.82 0 0 0 5.37,0 l 7.62,-7.62 a 11.54,11.54 0 1 1 -5.37,-5.37 l -7.62,7.62 a 3.8,3.8 0 0 0 0,5.37 z m 13.18,-18.59 a 19,19 0 1 0 5.37,5.37 l 18.06,-18.07 a 44.54,44.54 0 1 1 -5.38,-5.37 z m 46.32,-40.92 -0.56,-16.21999 25.55,-25.559996 0.42,12.69 a 3.81,3.81 0 0 0 3.81,3.81 l 12.68,0.42 -25.67,25.369986 z"
       class="cls-9" />
    <use
       transform="translate(3.2617187e-6,3.9257812e-6)"
       height="100%"
       width="100%"
       id="use396"
       xlink:href="#path233"
       y="0"
       x="0" />
    <use
       transform="translate(3.2617187e-6,3.9257812e-6)"
       height="100%"
       width="100%"
       id="use398"
       xlink:href="#path235"
       y="0"
       x="0" />
    <use
       transform="translate(3.2617187e-6,3.9257812e-6)"
       height="100%"
       width="100%"
       id="use400"
       xlink:href="#path237"
       y="0"
       x="0" />
    <use
       transform="translate(3.2617187e-6,3.9257812e-6)"
       height="100%"
       width="100%"
       id="use402"
       xlink:href="#path239"
       y="0"
       x="0" />
    <use
       transform="translate(3.2617187e-6,3.9257812e-6)"
       height="100%"
       width="100%"
       id="use404"
       xlink:href="#path241"
       y="0"
       x="0" />
    <use
       transform="translate(3.2617187e-6,3.9257812e-6)"
       height="100%"
       width="100%"
       id="use406"
       xlink:href="#path243"
       y="0"
       x="0" />
    <use
       transform="translate(3.2617187e-6,3.9257812e-6)"
       height="100%"
       width="100%"
       id="use408"
       xlink:href="#path245"
       y="0"
       x="0" />
    <use
       transform="translate(3.2617187e-6,3.9257812e-6)"
       height="100%"
       width="100%"
       id="use410"
       xlink:href="#path247"
       y="0"
       x="0" />
    <use
       transform="translate(3.2617187e-6,3.9257812e-6)"
       height="100%"
       width="100%"
       id="use412"
       xlink:href="#path249"
       y="0"
       x="0" />
    <use
       transform="translate(3.2617187e-6,3.9257812e-6)"
       height="100%"
       width="100%"
       id="use414"
       xlink:href="#path253"
       y="0"
       x="0" />
    <use
       transform="translate(3.2617187e-6,3.9257812e-6)"
       height="100%"
       width="100%"
       id="use416"
       xlink:href="#path255"
       y="0"
       x="0" />
    <use
       transform="translate(3.2617187e-6,3.9257812e-6)"
       height="100%"
       width="100%"
       id="use418"
       xlink:href="#path257"
       y="0"
       x="0" />
    <use
       transform="translate(3.2617187e-6,3.9257812e-6)"
       height="100%"
       width="100%"
       id="use420"
       xlink:href="#path259"
       y="0"
       x="0" />
    <use
       transform="translate(3.2617187e-6,3.9257812e-6)"
       height="100%"
       width="100%"
       id="use422"
       xlink:href="#path261"
       y="0"
       x="0" />
    <use
       transform="translate(3.2617187e-6,3.9257812e-6)"
       height="100%"
       width="100%"
       id="use424"
       xlink:href="#path263"
       y="0"
       x="0" />
    <use
       transform="translate(3.2617187e-6,3.9257812e-6)"
       height="100%"
       width="100%"
       id="use426"
       xlink:href="#path265"
       y="0"
       x="0" />
    <use
       transform="translate(3.2617187e-6,3.9257812e-6)"
       height="100%"
       width="100%"
       id="use428"
       xlink:href="#path267"
       y="0"
       x="0" />
    <use
       transform="translate(3.2617187e-6,3.9257812e-6)"
       height="100%"
       width="100%"
       id="use430"
       xlink:href="#path269"
       y="0"
       x="0" />
    <use
       transform="translate(3.2617187e-6,3.9257812e-6)"
       height="100%"
       width="100%"
       id="use432"
       xlink:href="#path271"
       y="0"
       x="0" />
    <use
       transform="translate(3.2617187e-6,3.9257812e-6)"
       height="100%"
       width="100%"
       id="use434"
       xlink:href="#path273"
       y="0"
       x="0" />
    <use
       transform="translate(3.2617187e-6,3.9257812e-6)"
       height="100%"
       width="100%"
       id="use468"
       xlink:href="#path309"
       y="0"
       x="0" />
  </g>
</svg>
